<?xml version="1.0" standalone="no"?>
<!DOCTYPE svg PUBLIC "-//W3C//DTD SVG 20010904//EN"
 "http://www.w3.org/TR/2001/REC-SVG-20010904/DTD/svg10.dtd">
<svg version="1.0" xmlns="http://www.w3.org/2000/svg"
 width="450.000000pt" height="450.000000pt" viewBox="0 0 450.000000 450.000000"
 preserveAspectRatio="xMidYMid meet">
<metadata>
Created by potrace 1.11, written by Peter Selinger 2001-2013
</metadata>
<g transform="translate(0.000000,450.000000) scale(0.100000,-0.100000)"
fill="#000000" stroke="none">
<path d="M3810 4450 c0 -5 5 -10 10 -10 6 0 10 5 10 10 0 6 -4 10 -10 10 -5 0
-10 -4 -10 -10z"/>
<path d="M3856 4444 c-9 -22 3 -32 14 -14 12 19 12 30 1 30 -5 0 -12 -7 -15
-16z"/>
<path d="M4191 4438 c17 -33 23 -36 16 -10 -3 12 -2 20 1 18 4 -2 16 0 27 5
16 6 12 8 -18 8 -36 1 -37 0 -26 -21z"/>
<path d="M4230 4330 c0 -5 5 -10 10 -10 6 0 10 5 10 10 0 6 -4 10 -10 10 -5 0
-10 -4 -10 -10z"/>
<path d="M4492 4155 c-2 -37 -4 -39 -17 -21 -12 16 -15 17 -15 4 0 -9 -6 -18
-12 -20 -10 -4 -10 -10 0 -32 11 -25 10 -28 -6 -33 -20 -5 -29 -58 -11 -68 5
-4 9 2 10 12 0 10 3 13 6 6 2 -7 9 -13 14 -13 6 0 8 4 5 9 -3 5 3 20 15 34 17
22 19 38 16 94 -2 39 -4 51 -5 28z"/>
<path d="M4176 4105 c-16 -12 -17 -15 -4 -15 9 0 18 7 22 15 7 18 6 18 -18 0z"/>
<path d="M3955 4070 c-3 -5 -1 -10 4 -10 6 0 11 5 11 10 0 6 -2 10 -4 10 -3 0
-8 -4 -11 -10z"/>
<path d="M4000 4038 c0 -4 4 -8 9 -8 5 0 16 -15 25 -32 9 -20 16 -26 16 -15 0
9 5 17 10 17 6 0 10 9 10 19 0 14 -9 20 -35 23 -19 2 -35 0 -35 -4z"/>
<path d="M4170 3974 c0 -17 18 -36 30 -32 7 2 4 10 -9 22 -12 11 -21 15 -21
10z"/>
<path d="M4225 3951 c-3 -5 -1 -12 5 -16 5 -3 10 1 10 9 0 18 -6 21 -15 7z"/>
<path d="M4131 3747 c-6 -6 -10 -22 -10 -36 1 -16 3 -19 6 -10 2 10 13 19 24
22 10 3 19 10 19 15 0 15 -26 22 -39 9z"/>
<path d="M4436 3664 c-11 -7 -17 -16 -15 -19 3 -3 14 2 25 9 10 8 17 17 14 19
-3 3 -14 -1 -24 -9z"/>
<path d="M2057 3639 c-90 -21 -224 -114 -280 -194 l-21 -30 29 25 c16 14 35
32 42 40 7 8 13 10 13 4 0 -6 -12 -21 -26 -35 -14 -13 -32 -36 -40 -51 -8 -16
-19 -28 -25 -28 -6 0 -6 7 1 20 23 43 -10 18 -39 -30 -36 -58 -39 -70 -11 -45
11 10 23 15 27 11 7 -7 -37 -42 -49 -39 -3 1 -9 -4 -12 -13 -3 -8 -2 -12 4 -9
6 3 10 2 10 -4 0 -5 -7 -14 -16 -19 -9 -5 -22 -25 -29 -43 -20 -55 -66 -171
-83 -209 -9 -19 -17 -39 -18 -45 -3 -24 -17 -45 -30 -45 -8 0 -14 -4 -14 -8 0
-5 -36 -63 -80 -130 -44 -67 -80 -125 -80 -128 0 -3 -14 -26 -31 -51 -25 -36
-32 -56 -33 -101 -1 -39 -6 -57 -16 -60 -14 -5 -40 -26 -128 -103 -18 -16 -31
-33 -28 -38 11 -17 -45 -22 -75 -7 -24 12 -29 12 -29 1 0 -23 30 -45 61 -45
29 0 30 -1 15 -22 -9 -12 -16 -31 -16 -41 0 -10 -4 -16 -9 -12 -5 3 -19 -7
-30 -22 -11 -16 -25 -33 -30 -39 -5 -6 -12 -20 -15 -32 -4 -12 -12 -21 -17
-19 -6 1 -20 -16 -32 -38 -12 -22 -26 -43 -32 -47 -59 -39 -82 -57 -107 -82
-33 -34 -32 -41 7 -26 15 6 29 9 31 7 2 -2 -23 -30 -56 -62 -33 -33 -60 -68
-60 -77 0 -10 -5 -18 -11 -18 -5 0 -8 -4 -4 -9 8 -14 -31 -33 -74 -35 -20 -2
-54 -11 -75 -22 -31 -15 -43 -28 -54 -61 -11 -35 -18 -43 -38 -43 -28 0 -104
-47 -104 -64 0 -30 -23 -36 -58 -14 -32 20 -36 20 -47 5 -16 -22 -33 -21 -57
0 -17 15 -21 15 -29 3 -8 -11 -12 -12 -16 -2 -2 6 -22 12 -43 12 -22 0 -43 6
-47 13 -4 8 -16 16 -26 20 -16 6 -17 -11 -17 -281 0 -158 4 -281 8 -275 6 10
24 10 83 -2 40 -8 88 -19 104 -24 17 -6 55 -14 85 -18 44 -7 54 -12 52 -26 -2
-11 4 -17 18 -17 11 0 20 6 20 14 0 17 31 29 52 21 8 -3 26 -1 40 4 26 10 26
9 33 -55 3 -35 11 -64 16 -64 5 0 9 6 9 14 0 8 4 16 10 18 5 2 13 31 16 66 6
52 10 62 26 62 10 0 26 4 36 8 9 5 51 25 92 45 41 20 104 46 140 58 84 28 112
43 155 81 20 17 38 28 42 25 3 -4 7 -23 8 -44 3 -47 12 -70 31 -77 15 -6 19
-46 5 -62 -4 -5 -13 -23 -19 -41 -13 -40 1 -73 56 -130 35 -36 40 -48 69 -183
54 -247 76 -468 57 -563 l-6 -27 356 0 356 0 -5 293 c-3 160 -8 339 -11 397
-3 58 -7 150 -9 205 -2 55 -6 181 -10 280 -3 99 -10 214 -15 255 -4 41 -9 173
-10 293 -1 205 0 220 20 252 11 18 25 35 30 37 6 2 4 36 -6 88 -8 47 -18 100
-21 118 -4 20 -2 32 6 32 10 0 16 -29 12 -54 -1 -5 5 -6 13 -3 9 4 18 2 21 -4
4 -5 10 -7 15 -4 4 3 26 -2 49 -10 64 -22 86 -7 56 39 l-15 23 66 6 c69 7 134
25 134 39 0 4 6 8 14 8 8 0 24 9 37 21 21 18 21 20 4 14 -77 -26 -148 -17
-196 26 -19 17 -54 45 -78 61 -50 35 -115 100 -127 126 -12 26 -35 122 -41
169 -3 27 2 64 13 99 14 45 24 59 49 71 17 8 37 28 44 43 8 20 17 27 28 23 8
-3 19 0 25 8 7 11 11 11 15 1 2 -6 8 -10 13 -7 13 8 -1 45 -21 55 -11 6 -16
17 -13 25 4 10 -5 20 -30 30 -20 8 -36 17 -36 20 0 9 29 111 38 135 5 14 36
50 69 82 72 68 124 82 200 53 67 -26 260 -190 288 -245 11 -22 35 -109 50
-183 3 -15 10 -25 15 -22 10 6 30 -26 30 -49 0 -9 -7 -16 -16 -16 -10 0 -14
-6 -10 -15 3 -9 0 -15 -9 -15 -9 0 -16 -15 -20 -37 -3 -21 -17 -72 -31 -113
-30 -86 -30 -96 -16 -204 11 -89 27 -111 74 -100 25 5 28 3 28 -20 0 -14 -5
-37 -12 -51 -9 -19 -8 -31 1 -49 9 -16 11 -40 6 -73 -3 -27 -8 -60 -9 -73 -9
-73 -60 -322 -76 -365 -10 -27 -25 -79 -35 -115 -9 -36 -21 -75 -26 -87 -10
-27 -37 -210 -44 -300 -3 -37 -15 -135 -25 -218 -11 -82 -23 -172 -26 -200 -3
-27 -9 -69 -15 -93 -5 -24 -7 -46 -5 -50 2 -4 -2 -50 -10 -102 -18 -118 -34
-268 -40 -380 -3 -47 -9 -98 -14 -113 -20 -60 -50 -57 560 -57 l557 0 7 148
c4 81 11 161 17 179 6 17 12 89 13 160 2 70 9 162 14 203 6 41 11 109 12 151
0 41 4 100 9 130 6 30 12 75 16 101 8 69 14 80 39 72 34 -10 41 -22 39 -69 -1
-34 2 -45 14 -45 8 0 17 9 20 20 3 11 9 17 14 14 5 -3 9 2 9 10 0 17 29 22 46
8 14 -12 173 -70 324 -117 30 -10 78 -19 105 -21 28 -2 67 -6 89 -8 21 -3 54
2 72 10 19 8 49 20 67 28 17 7 46 16 63 20 30 7 31 5 27 -18 -6 -29 2 -33 23
-12 11 12 14 61 14 265 0 138 -3 251 -6 251 -3 0 -46 -25 -96 -55 -49 -30 -93
-55 -97 -55 -11 0 -41 56 -34 64 3 3 1 6 -6 6 -9 0 -11 8 -8 21 3 12 0 22 -9
26 -8 3 -14 11 -14 19 0 16 -12 18 -26 4 -7 -7 -17 -5 -30 4 -15 12 -17 17 -6
27 10 10 12 10 12 0 0 -7 5 -9 10 -6 17 10 -1 27 -23 21 -14 -3 -17 -2 -9 6 6
6 8 16 6 23 -4 8 6 16 25 20 29 6 31 10 31 50 0 30 -5 45 -16 49 -24 9 -24 9
-24 -27 0 -18 -7 -42 -15 -53 -8 -10 -15 -27 -15 -36 0 -10 -8 -18 -17 -18
-13 0 -14 3 -5 12 7 7 12 19 12 28 -1 11 -5 9 -19 -7 -12 -15 -30 -23 -48 -22
l-28 1 28 10 c50 18 28 26 -63 23 -53 -3 -90 0 -90 5 0 6 7 10 15 10 8 0 15 4
15 9 0 13 -70 72 -79 67 -5 -3 -13 6 -19 19 -7 14 -20 25 -29 25 -20 0 -50 27
-103 91 -19 24 -48 56 -65 72 -16 17 -30 33 -30 38 0 26 -142 171 -211 215
-16 10 -40 29 -54 41 -14 13 -30 23 -37 23 -6 0 -24 13 -40 28 -18 18 -44 31
-70 35 -23 4 -48 14 -57 22 -8 8 -21 15 -28 15 -8 0 -18 4 -23 9 -6 5 -33 16
-61 24 -28 8 -63 26 -77 39 -14 12 -47 40 -75 61 -44 34 -54 49 -81 120 -22
61 -31 105 -35 172 -11 189 -55 379 -120 515 -34 71 -55 100 -136 180 -101
101 -148 130 -209 130 -21 0 -58 9 -82 20 -46 21 -108 24 -172 9z m649 -864
c14 -33 20 -84 8 -73 -7 8 -33 108 -28 108 3 0 12 -16 20 -35z m-1329 -317
c-3 -8 -6 -5 -6 6 -1 11 2 17 5 13 3 -3 4 -12 1 -19z m1278 -58 c3 -5 1 -10
-4 -10 -6 0 -11 5 -11 10 0 6 2 10 4 10 3 0 8 -4 11 -10z m-1620 -290 c-4 -19
-3 -30 4 -30 6 0 11 -9 11 -21 0 -11 -4 -17 -10 -14 -5 3 -10 1 -10 -4 0 -6
-4 -11 -8 -11 -13 0 -13 81 -1 96 17 21 21 17 14 -16z m-157 -268 c6 -18 -15
-14 -22 4 -4 10 -1 14 6 12 6 -2 14 -10 16 -16z m251 -930 c-2 -15 -1 -32 2
-37 13 -21 19 -65 10 -65 -14 0 -50 49 -57 77 -7 26 10 53 33 53 10 0 14 -9
12 -28z"/>
<path d="M4134 3624 c3 -9 6 -20 6 -25 0 -5 9 -4 19 3 18 11 18 13 3 25 -23
17 -35 16 -28 -3z"/>
<path d="M4440 3582 c0 -19 12 -42 22 -42 14 0 5 43 -9 48 -7 2 -13 -1 -13 -6z"/>
<path d="M4052 3568 c3 -7 13 -15 23 -17 17 -3 17 -2 3 13 -20 19 -31 21 -26
4z"/>
<path d="M4310 3559 c0 -5 5 -7 10 -4 6 3 10 8 10 11 0 2 -4 4 -10 4 -5 0 -10
-5 -10 -11z"/>
<path d="M4274 3535 c-10 -8 -14 -15 -8 -15 6 0 17 7 24 15 16 19 9 19 -16 0z"/>
<path d="M4375 3431 c-3 -5 -1 -12 4 -15 5 -3 11 1 15 9 6 16 -9 21 -19 6z"/>
<path d="M4347 3373 c-12 -11 -8 -21 12 -28 10 -3 23 -15 29 -28 7 -15 11 -17
11 -6 2 40 -33 82 -52 62z"/>
<path d="M4291 3344 c0 -11 3 -14 6 -6 3 7 2 16 -1 19 -3 4 -6 -2 -5 -13z"/>
<path d="M4183 3309 c4 -13 7 -30 7 -36 0 -7 5 -13 11 -13 15 0 6 63 -10 68
-10 4 -12 -1 -8 -19z"/>
<path d="M4276 3311 c-4 -7 -5 -15 -2 -18 9 -9 19 4 14 18 -4 11 -6 11 -12 0z"/>
<path d="M4336 3303 c-6 -14 -5 -15 5 -6 7 7 10 15 7 18 -3 3 -9 -2 -12 -12z"/>
<path d="M4240 3265 c0 -8 5 -15 10 -15 6 0 10 7 10 15 0 8 -4 15 -10 15 -5 0
-10 -7 -10 -15z"/>
<path d="M4371 3261 c-16 -28 -14 -30 14 -18 25 12 28 28 8 34 -7 3 -16 -5
-22 -16z"/>
<path d="M4455 3271 c-3 -5 -1 -12 5 -16 5 -3 10 1 10 9 0 18 -6 21 -15 7z"/>
<path d="M4310 3250 c0 -6 -11 -15 -25 -20 -29 -11 -34 -37 -6 -35 28 2 50 23
48 46 -1 19 -17 28 -17 9z"/>
<path d="M669 3243 c-1 -5 -1 -11 0 -15 0 -5 -3 -8 -9 -8 -5 0 5 -22 22 -49
32 -53 57 -147 58 -220 0 -37 2 -42 18 -36 9 4 22 7 27 6 6 -1 36 -4 68 -7
l57 -6 0 30 c0 27 -45 102 -76 127 -7 6 -33 43 -59 82 -26 42 -59 80 -75 88
-17 9 -31 12 -31 8z m130 -260 c0 -16 -3 -22 -6 -15 -2 6 -9 10 -14 6 -5 -3
-14 -2 -20 2 -9 5 12 22 39 33 1 1 2 -11 1 -26z"/>
<path d="M351 3208 c-4 -13 -11 -56 -15 -95 -6 -61 -5 -73 8 -73 18 0 41 106
37 173 -1 24 -20 21 -30 -5z"/>
<path d="M860 3194 c0 -22 62 -93 82 -95 7 -1 26 0 41 1 33 2 87 -18 87 -32 0
-5 15 -6 33 -3 25 5 39 2 51 -11 14 -14 83 -54 93 -54 2 0 3 16 3 36 0 30 3
36 18 32 35 -9 13 36 -29 60 -21 12 -39 29 -39 37 0 8 -7 15 -15 15 -8 0 -15
5 -15 10 0 6 -8 10 -17 10 -15 0 -16 -2 -3 -10 12 -8 11 -10 -7 -10 -14 0 -23
-6 -23 -15 0 -9 -9 -15 -22 -15 -13 -1 -40 -7 -61 -14 -36 -13 -38 -13 -57 15
-13 17 -26 26 -35 22 -8 -3 -15 -1 -15 5 0 5 -8 12 -17 15 -10 2 -26 8 -35 12
-13 5 -18 2 -18 -11z"/>
<path d="M3312 3198 c-6 -6 -6 -25 0 -50 4 -22 6 -55 2 -72 -4 -24 -1 -38 11
-49 21 -21 78 -22 95 -2 9 11 16 13 24 5 17 -17 43 -11 49 11 4 16 12 20 34
17 27 -3 28 -2 25 37 -2 22 -11 48 -19 58 -9 9 -12 17 -7 18 5 1 -6 5 -25 9
-41 10 -61 4 -61 -18 0 -13 -2 -13 -18 1 -10 10 -28 17 -40 17 -12 0 -22 4
-22 9 0 13 -37 20 -48 9z"/>
<path d="M412 3179 c-15 -39 -25 -139 -14 -139 9 0 33 150 26 159 -2 2 -7 -7
-12 -20z"/>
<path d="M3055 3189 c-18 -7 -18 -8 -1 -8 15 -1 17 -8 14 -45 -2 -38 0 -46 16
-50 29 -8 36 1 36 48 0 35 -4 45 -22 53 -13 6 -32 7 -43 2z"/>
<path d="M4348 3192 c-19 -4 -25 -37 -9 -46 4 -3 11 -19 14 -36 6 -28 8 -29
32 -18 17 8 22 15 15 22 -13 13 -13 27 1 24 18 -5 21 16 4 37 -14 20 -14 20
-15 0 -1 -20 -1 -20 -13 0 -7 12 -20 19 -29 17z"/>
<path d="M487 3118 c-4 -56 4 -91 17 -77 3 3 8 35 12 72 6 56 4 67 -8 67 -12
0 -17 -15 -21 -62z"/>
<path d="M4277 3166 c-3 -8 1 -22 9 -33 13 -17 14 -16 8 12 -8 37 -10 39 -17
21z"/>
<path d="M2297 3161 c-36 -5 -56 -15 -80 -40 -31 -32 -31 -33 -7 -26 14 4 54
18 89 32 46 18 74 23 100 19 34 -6 35 -5 17 9 -21 16 -40 17 -119 6z"/>
<path d="M4191 3114 c0 -11 3 -14 6 -6 3 7 2 16 -1 19 -3 4 -6 -2 -5 -13z"/>
<path d="M4480 3112 c0 -15 -5 -20 -15 -16 -11 5 -13 2 -9 -10 3 -9 10 -16 15
-16 11 0 24 49 15 57 -3 4 -6 -3 -6 -15z"/>
<path d="M3997 3103 c-7 -7 16 -47 40 -72 27 -26 26 -1 -2 39 -31 44 -29 43
-38 33z"/>
<path d="M2275 3081 c-41 -20 -55 -35 -45 -51 14 -22 142 -8 179 20 39 29 22
50 -41 49 -39 0 -48 -3 -33 -9 19 -8 19 -9 -2 -9 -12 -1 -23 3 -25 7 -1 4 -16
1 -33 -7z m10 -51 c3 -5 -1 -10 -10 -10 -9 0 -13 5 -10 10 3 6 8 10 10 10 2 0
7 -4 10 -10z"/>
<path d="M4393 3064 c-38 -19 -62 -67 -43 -89 16 -19 34 -19 26 0 -3 8 -2 15
3 15 5 0 12 -15 15 -32 l7 -33 15 27 c12 22 12 31 2 47 -10 16 -9 25 2 45 18
34 11 38 -27 20z"/>
<path d="M2957 3056 c-3 -7 -26 -18 -51 -25 -25 -6 -46 -14 -46 -17 0 -3 9
-13 21 -22 20 -17 19 -52 -2 -52 -5 0 -9 -4 -9 -10 0 -21 123 3 163 32 16 12
16 16 -5 60 -17 35 -29 48 -44 48 -12 0 -24 -6 -27 -14z"/>
<path d="M4132 3037 c-27 -29 -27 -41 -1 -78 25 -36 34 -37 37 -3 1 14 7 34
12 45 7 13 7 19 0 19 -5 0 -10 9 -10 20 0 26 -12 25 -38 -3z"/>
<path d="M1337 3036 c-6 -15 1 -26 15 -26 4 0 8 9 8 20 0 23 -15 27 -23 6z"/>
<path d="M528 2977 c-31 -50 -44 -92 -29 -101 5 -4 14 2 20 11 9 16 10 16 11
-5 0 -13 -7 -30 -16 -39 -9 -10 -12 -19 -6 -25 15 -15 52 13 52 39 0 12 8 26
18 32 13 8 14 12 5 22 -8 7 -10 29 -6 60 7 63 -11 65 -49 6z"/>
<path d="M260 3000 c0 -5 5 -10 11 -10 5 0 7 5 4 10 -3 6 -8 10 -11 10 -2 0
-4 -4 -4 -10z"/>
<path d="M85 2990 c-7 -12 2 -30 16 -30 12 0 12 27 0 35 -5 3 -12 1 -16 -5z"/>
<path d="M4210 2966 c-7 -14 -10 -31 -7 -39 3 -8 0 -20 -6 -26 -16 -16 -2 -24
22 -11 12 6 21 21 21 33 0 13 5 28 11 34 13 13 4 33 -15 33 -7 0 -18 -11 -26
-24z"/>
<path d="M315 2963 c-3 -10 2 -25 13 -36 19 -19 19 -18 26 7 4 15 11 24 16 21
6 -4 8 -10 5 -15 -3 -5 3 -14 14 -20 12 -6 22 -6 25 -1 4 5 0 12 -6 14 -10 4
-9 8 2 16 21 15 5 25 -44 27 -33 2 -46 -1 -51 -13z"/>
<path d="M4306 2955 c4 -8 8 -15 10 -15 2 0 4 7 4 15 0 8 -4 15 -10 15 -5 0
-7 -7 -4 -15z"/>
<path d="M96 2942 c-3 -6 1 -15 8 -21 8 -7 17 -8 20 -3 3 6 -1 15 -8 21 -8 7
-17 8 -20 3z"/>
<path d="M4460 2931 c0 -11 31 -24 39 -16 3 3 -1 10 -9 15 -19 12 -30 12 -30
1z"/>
<path d="M657 2913 c-4 -3 -7 -11 -7 -17 0 -6 5 -5 12 2 6 6 9 14 7 17 -3 3
-9 2 -12 -2z"/>
<path d="M3039 2897 c-66 -26 -129 -65 -129 -79 0 -7 14 -8 38 -4 20 3 63 6
94 6 56 0 57 0 68 35 12 35 8 65 -7 64 -4 0 -33 -10 -64 -22z"/>
<path d="M382 2880 c-8 -13 -8 -20 -2 -20 6 0 13 7 17 15 9 24 -1 27 -15 5z"/>
<path d="M4485 2880 c3 -5 8 -10 11 -10 2 0 4 5 4 10 0 6 -5 10 -11 10 -5 0
-7 -4 -4 -10z"/>
<path d="M4262 2858 c2 -14 13 -24 32 -29 38 -10 43 -5 26 26 -18 33 -63 36
-58 3z"/>
<path d="M0 2840 c0 -18 4 -29 10 -25 6 3 10 15 10 25 0 10 -4 22 -10 25 -6 4
-10 -7 -10 -25z"/>
<path d="M2297 2836 c15 -13 30 -22 33 -19 6 6 -38 43 -52 43 -5 0 4 -11 19
-24z"/>
<path d="M3823 2843 c-22 -15 -32 -43 -15 -43 5 0 21 14 37 30 31 32 17 41
-22 13z"/>
<path d="M4460 2825 c25 -41 25 -55 0 -48 -11 3 -20 2 -20 -2 0 -8 42 -44 53
-45 12 0 8 55 -5 69 -10 11 -10 14 0 18 13 5 17 32 5 34 -5 0 -18 2 -30 3
l-23 3 20 -32z"/>
<path d="M262 2820 c0 -14 2 -19 5 -12 2 6 2 18 0 25 -3 6 -5 1 -5 -13z"/>
<path d="M836 2828 c-3 -7 -7 -32 -10 -55 -5 -35 -3 -43 9 -43 9 0 18 7 21 15
4 8 14 15 24 15 11 0 22 5 25 10 3 6 1 10 -4 10 -6 0 -11 14 -11 30 0 25 -4
30 -25 30 -14 0 -27 -6 -29 -12z"/>
<path d="M52 2779 c6 -48 36 -125 45 -116 3 3 7 38 9 76 4 57 2 71 -10 71 -8
0 -22 3 -32 7 -15 5 -16 1 -12 -38z"/>
<path d="M4427 2809 c7 -7 15 -10 18 -7 3 3 -2 9 -12 12 -14 6 -15 5 -6 -5z"/>
<path d="M2213 2789 c-21 -22 -42 -24 -105 -13 -30 5 -38 3 -38 -9 0 -17 49
-37 91 -37 17 0 29 5 29 13 0 6 14 24 32 39 18 15 28 28 23 28 -6 0 -20 -9
-32 -21z"/>
<path d="M145 2790 c3 -5 10 -10 16 -10 5 0 9 5 9 10 0 6 -7 10 -16 10 -8 0
-12 -4 -9 -10z"/>
<path d="M2344 2768 c1 -31 0 -32 -59 -45 -83 -18 -160 -32 -227 -39 -39 -5
-58 -11 -58 -20 0 -8 7 -14 16 -14 9 0 31 -15 48 -34 43 -45 86 -68 86 -46 0
6 -9 10 -19 10 -24 0 -36 16 -20 26 8 5 8 9 -1 14 -20 12 -3 40 24 40 14 0 62
12 106 26 58 19 84 23 89 15 10 -15 63 9 56 26 -2 7 0 15 5 18 9 5 -31 55 -44
55 -2 0 -3 -14 -2 -32z"/>
<path d="M4130 2774 l-25 -13 27 -1 c15 0 29 4 33 9 10 17 -10 20 -35 5z"/>
<path d="M4040 2772 c0 -14 43 -23 54 -12 7 7 4 10 -6 10 -9 0 -23 3 -32 6 -9
3 -16 2 -16 -4z"/>
<path d="M298 2754 c-7 -11 8 -127 21 -169 7 -26 10 -28 16 -11 5 11 3 26 -3
37 -7 10 -12 42 -12 71 0 51 -12 89 -22 72z"/>
<path d="M3586 2752 c-3 -6 -1 -14 5 -17 15 -10 25 3 12 16 -7 7 -13 7 -17 1z"/>
<path d="M3650 2744 c0 -8 5 -12 10 -9 6 3 10 10 10 16 0 5 -4 9 -10 9 -5 0
-10 -7 -10 -16z"/>
<path d="M3031 2719 c-18 -11 -47 -33 -65 -50 l-31 -30 25 -20 c17 -15 33 -19
53 -15 16 3 79 6 138 6 l109 0 11 28 c6 15 13 39 15 53 3 23 -1 28 -28 33 -32
6 -58 -7 -58 -29 0 -13 -69 -60 -82 -57 -5 1 -8 -2 -8 -8 0 -5 -12 -10 -27
-10 -21 0 -24 3 -15 12 7 7 12 26 12 44 0 19 6 34 15 38 8 3 15 10 15 16 0 17
-43 11 -79 -11z"/>
<path d="M1989 2704 c-12 -14 -11 -16 5 -13 11 2 21 10 24 17 5 17 -13 15 -29
-4z"/>
<path d="M3842 2686 c-23 -12 -23 -12 -3 -30 19 -17 20 -17 31 4 15 29 1 42
-28 26z"/>
<path d="M3890 2684 c0 -8 5 -12 10 -9 6 4 8 11 5 16 -9 14 -15 11 -15 -7z"/>
<path d="M3565 2630 c-3 -5 -1 -10 4 -10 6 0 11 5 11 10 0 6 -2 10 -4 10 -3 0
-8 -4 -11 -10z"/>
<path d="M4122 2608 c-23 -12 -39 -25 -36 -30 15 -24 90 -68 115 -68 38 0 61
38 33 53 -11 6 -31 23 -45 38 l-26 28 -41 -21z"/>
<path d="M896 2595 c-9 -9 -19 -23 -24 -31 -5 -9 -24 -16 -45 -17 -21 -1 -37
-7 -37 -14 0 -9 20 -11 72 -8 78 6 103 17 89 44 -5 9 -6 22 -4 29 7 17 -32 15
-51 -3z"/>
<path d="M2218 2573 c7 -3 16 -2 19 1 4 3 -2 6 -13 5 -11 0 -14 -3 -6 -6z"/>
<path d="M372 2550 c0 -14 2 -19 5 -12 2 6 2 18 0 25 -3 6 -5 1 -5 -13z"/>
<path d="M2168 2563 c6 -2 18 -2 25 0 6 3 1 5 -13 5 -14 0 -19 -2 -12 -5z"/>
<path d="M220 2531 c0 -6 5 -13 10 -16 6 -3 10 1 10 9 0 9 -4 16 -10 16 -5 0
-10 -4 -10 -9z"/>
<path d="M3950 2511 c0 -19 22 -23 38 -7 15 15 14 16 -11 16 -15 0 -27 -4 -27
-9z"/>
<path d="M410 2474 c0 -8 5 -12 10 -9 6 3 10 10 10 16 0 5 -4 9 -10 9 -5 0
-10 -7 -10 -16z"/>
<path d="M4264 2475 c4 -10 -3 -20 -19 -27 -25 -11 -30 -20 -18 -31 3 -4 12 1
20 11 12 16 14 16 29 -3 16 -19 16 -19 10 8 -4 17 -2 35 5 43 9 11 7 14 -11
14 -16 0 -20 -4 -16 -15z"/>
<path d="M4312 2444 c3 -17 21 -21 26 -6 1 5 -4 12 -13 16 -11 4 -15 1 -13
-10z"/>
<path d="M3860 2435 c0 -8 7 -15 15 -15 8 0 15 7 15 15 0 8 -7 15 -15 15 -8 0
-15 -7 -15 -15z"/>
<path d="M76 2413 c-9 -9 -7 -33 3 -33 12 0 22 28 12 34 -5 3 -11 3 -15 -1z"/>
<path d="M3900 2400 c0 -5 5 -10 11 -10 5 0 7 5 4 10 -3 6 -8 10 -11 10 -2 0
-4 -4 -4 -10z"/>
<path d="M3805 2320 c3 -5 8 -10 11 -10 2 0 4 5 4 10 0 6 -5 10 -11 10 -5 0
-7 -4 -4 -10z"/>
<path d="M1020 2310 c-12 -8 -10 -10 8 -10 13 0 20 4 17 10 -7 12 -6 12 -25 0z"/>
<path d="M4340 2277 c0 -20 4 -25 15 -21 13 5 13 9 3 23 -7 9 -14 18 -15 20
-2 2 -3 -8 -3 -22z"/>
<path d="M3977 2263 c-16 -3 -26 -10 -24 -16 6 -19 30 -18 57 3 25 20 22 21
-33 13z"/>
<path d="M430 2205 c0 -19 4 -35 8 -35 4 0 6 16 4 35 -2 19 -6 35 -8 35 -2 0
-4 -16 -4 -35z"/>
<path d="M4320 2226 c0 -22 17 -28 24 -10 9 22 8 24 -9 24 -8 0 -15 -6 -15
-14z"/>
<path d="M4450 2186 c0 -21 26 -40 33 -23 3 7 -4 19 -14 25 -15 10 -19 9 -19
-2z"/>
<path d="M65 2160 c-4 -6 -2 -17 4 -24 7 -9 9 -30 5 -55 -8 -49 8 -55 31 -11
19 37 19 64 -1 84 -18 19 -30 20 -39 6z"/>
<path d="M4417 2156 c-4 -10 -1 -13 8 -9 8 3 12 9 9 14 -7 12 -11 11 -17 -5z"/>
<path d="M4200 2150 c0 -5 5 -10 11 -10 5 0 7 5 4 10 -3 6 -8 10 -11 10 -2 0
-4 -4 -4 -10z"/>
<path d="M4446 2125 c25 -19 40 -19 24 0 -7 8 -20 15 -28 15 -13 0 -12 -3 4
-15z"/>
<path d="M4377 2046 c-4 -10 -5 -21 -2 -24 9 -9 17 6 13 25 -3 17 -4 17 -11
-1z"/>
<path d="M3910 2040 c0 -5 5 -10 10 -10 6 0 10 5 10 10 0 6 -4 10 -10 10 -5 0
-10 -4 -10 -10z"/>
<path d="M3940 2009 c0 -5 5 -7 10 -4 6 3 10 8 10 11 0 2 -4 4 -10 4 -5 0 -10
-5 -10 -11z"/>
<path d="M4450 1995 c0 -8 5 -15 10 -15 6 0 10 7 10 15 0 8 -4 15 -10 15 -5 0
-10 -7 -10 -15z"/>
<path d="M70 1939 c0 -5 5 -7 10 -4 6 3 10 8 10 11 0 2 -4 4 -10 4 -5 0 -10
-5 -10 -11z"/>
<path d="M147 1865 c-4 -8 -2 -17 3 -20 6 -4 10 3 10 14 0 25 -6 27 -13 6z"/>
<path d="M4443 1873 c-15 -6 -17 -49 -3 -58 6 -3 10 0 10 8 0 8 7 17 15 21 8
3 12 12 9 21 -6 16 -11 17 -31 8z"/>
<path d="M4138 1743 c7 -3 16 -2 19 1 4 3 -2 6 -13 5 -11 0 -14 -3 -6 -6z"/>
<path d="M500 1700 c0 -5 5 -10 10 -10 6 0 10 5 10 10 0 6 -4 10 -10 10 -5 0
-10 -4 -10 -10z"/>
<path d="M4260 1679 c0 -5 5 -7 10 -4 6 3 10 8 10 11 0 2 -4 4 -10 4 -5 0 -10
-5 -10 -11z"/>
<path d="M340 1618 c0 -23 24 -88 32 -88 19 0 20 32 2 46 -11 9 -13 13 -6 9 7
-4 12 1 12 13 0 11 -9 22 -20 25 -11 3 -20 0 -20 -5z"/>
<path d="M3610 1015 c0 -8 7 -15 15 -15 8 0 15 7 15 15 0 8 -7 15 -15 15 -8 0
-15 -7 -15 -15z"/>
<path d="M4475 968 c-8 -26 0 -81 13 -85 8 -3 12 10 12 46 0 46 -15 70 -25 39z"/>
<path d="M4407 954 c4 -11 2 -15 -4 -11 -5 4 -19 0 -29 -8 -18 -13 -18 -14 -1
-20 30 -12 64 33 37 50 -6 4 -7 -1 -3 -11z"/>
<path d="M3605 949 c-10 -15 3 -25 16 -12 7 7 7 13 1 17 -6 3 -14 1 -17 -5z"/>
<path d="M4022 920 c0 -14 2 -19 5 -12 2 6 2 18 0 25 -3 6 -5 1 -5 -13z"/>
<path d="M70 885 c-8 -9 -8 -15 -2 -15 12 0 26 19 19 26 -2 2 -10 -2 -17 -11z"/>
<path d="M4401 881 c-1 -17 -5 -21 -17 -17 -8 3 -12 2 -9 -4 3 -6 1 -10 -4
-10 -6 0 -11 -4 -11 -10 0 -5 3 -9 8 -9 22 4 29 -4 29 -31 0 -16 -4 -27 -8
-24 -7 4 -69 -52 -69 -62 0 -2 14 -4 30 -4 27 0 30 -2 24 -25 -5 -19 -2 -25
10 -25 22 0 31 26 17 44 -8 10 -9 16 -1 21 5 3 10 19 10 36 0 16 5 29 10 29
13 0 13 47 0 55 -6 4 -9 9 -6 13 2 4 0 16 -5 27 -7 19 -8 18 -8 -4z"/>
<path d="M591 859 c-10 -29 -9 -36 6 -47 16 -11 18 -10 21 10 2 13 -1 35 -6
48 -9 23 -9 23 -21 -11z"/>
<path d="M4320 870 c0 -10 -6 -23 -12 -27 -33 -21 -50 -51 -39 -71 7 -13 7
-22 -1 -30 -9 -9 -8 -12 6 -12 25 0 46 24 35 41 -13 21 -11 49 6 65 14 14 21
54 10 54 -3 0 -5 -9 -5 -20z"/>
<path d="M0 853 c0 -23 5 -33 15 -33 19 0 19 21 0 46 -14 18 -14 17 -15 -13z"/>
<path d="M4443 800 c0 -63 11 -86 22 -50 4 11 10 18 15 15 5 -3 11 -1 14 4 4
5 -3 12 -14 16 -15 5 -20 15 -20 41 0 19 -4 34 -9 34 -5 0 -9 -27 -8 -60z"/>
<path d="M4482 825 c1 -19 5 -35 10 -35 4 0 8 16 8 35 0 19 -4 35 -10 35 -5 0
-9 -16 -8 -35z"/>
<path d="M3845 803 c-8 -26 -9 -52 -6 -70 2 -10 31 68 31 85 0 23 -18 12 -25
-15z"/>
<path d="M11 797 c-9 -12 -9 -21 0 -41 22 -48 42 -29 24 22 -10 28 -13 31 -24
19z"/>
<path d="M606 774 c-3 -8 -10 -13 -15 -9 -23 14 -20 -17 4 -41 33 -33 50 -20
41 30 -7 38 -20 46 -30 20z"/>
<path d="M90 730 c0 -5 7 -10 16 -10 8 0 12 5 9 10 -3 6 -10 10 -16 10 -5 0
-9 -4 -9 -10z"/>
<path d="M1 714 c0 -11 3 -14 6 -6 3 7 2 16 -1 19 -3 4 -6 -2 -5 -13z"/>
<path d="M3990 701 c0 -6 34 -30 42 -31 4 0 6 8 5 18 0 11 -9 17 -24 17 -13 0
-23 -2 -23 -4z"/>
<path d="M4072 680 c-16 -27 -15 -30 9 -30 11 0 29 -5 41 -11 34 -18 34 0 -1
31 -18 17 -33 30 -34 30 -1 0 -8 -9 -15 -20z"/>
<path d="M3597 670 c-4 -15 0 -20 14 -20 22 0 25 13 5 29 -11 9 -15 7 -19 -9z"/>
<path d="M580 671 c0 -20 13 -41 21 -35 15 9 10 44 -6 44 -8 0 -15 -4 -15 -9z"/>
<path d="M4340 658 c0 -16 5 -28 10 -28 13 0 13 20 0 40 -8 12 -10 9 -10 -12z"/>
<path d="M4487 666 c-4 -10 -5 -21 -2 -24 9 -9 17 6 13 25 -3 17 -4 17 -11 -1z"/>
<path d="M658 663 c-12 -3 -18 -14 -18 -34 0 -37 26 -39 42 -4 13 29 3 44 -24
38z"/>
<path d="M95 650 c-16 -26 -14 -43 8 -66 20 -21 23 -21 39 -7 11 10 18 12 18
5 0 -15 36 -16 45 -2 7 11 -42 33 -55 25 -8 -5 -35 23 -42 45 -4 12 -5 12 -13
0z"/>
<path d="M229 635 c-3 -37 -1 -62 7 -95 5 -21 7 -22 15 -8 6 10 4 37 -5 75
-12 46 -15 52 -17 28z"/>
<path d="M3837 653 c-4 -3 -7 -11 -7 -17 0 -6 5 -5 12 2 6 6 9 14 7 17 -3 3
-9 2 -12 -2z"/>
<path d="M4432 648 c-7 -7 -12 -18 -12 -25 0 -18 29 -16 37 3 8 21 -10 37 -25
22z"/>
<path d="M1 634 c0 -11 3 -14 6 -6 3 7 2 16 -1 19 -3 4 -6 -2 -5 -13z"/>
<path d="M490 620 c-12 -8 -10 -10 8 -10 27 0 75 -34 64 -45 -4 -4 2 -5 13 -3
31 5 24 31 -15 50 -41 20 -50 21 -70 8z"/>
<path d="M4316 580 c-29 -23 -57 -56 -69 -81 -17 -38 -18 -51 -9 -102 6 -33
16 -65 23 -73 24 -29 31 -14 24 55 -5 48 -3 71 5 76 8 5 9 -3 5 -29 -5 -24 -3
-36 4 -36 6 0 11 6 11 14 0 9 8 12 25 8 18 -3 30 1 40 14 7 11 16 16 20 12 11
-11 -5 -48 -21 -48 -8 0 -12 -5 -9 -10 4 -6 1 -17 -5 -25 -7 -8 -10 -24 -7
-35 10 -38 -10 -20 -24 22 l-13 42 -8 -35 c-4 -19 -3 -47 2 -64 10 -32 11 -69
3 -122 -3 -24 -12 -37 -33 -48 -17 -9 -32 -15 -35 -15 -60 2 -88 -2 -75 -10
25 -17 -5 -27 -68 -23 -67 4 -84 -1 -76 -22 5 -13 33 -15 184 -15 164 0 178 1
195 20 10 11 31 20 47 20 15 0 28 2 28 4 0 11 -53 116 -61 121 -5 4 -9 27 -8
53 l1 47 14 -50 c8 -27 24 -68 34 -91 11 -23 20 -46 20 -52 0 -6 5 -14 10 -17
6 -4 10 20 10 64 l0 71 -30 0 c-16 0 -30 4 -30 9 0 5 14 14 30 21 27 11 30 17
30 60 0 26 -9 72 -20 104 -10 31 -22 83 -26 115 -5 51 -9 58 -25 54 -10 -3
-17 -9 -14 -13 6 -10 -31 -23 -44 -16 -5 4 -19 -10 -31 -29 -12 -20 -25 -34
-27 -31 -8 7 38 99 56 113 9 7 12 12 6 12 -5 0 -32 -18 -59 -39z m84 -89 c0
-30 -4 -40 -20 -44 -21 -5 -37 8 -21 18 6 3 8 12 4 21 -4 12 19 42 35 44 1 0
2 -17 2 -39z m-25 -365 l30 -24 -29 -7 c-30 -8 -46 5 -46 38 0 23 9 22 45 -7z"/>
<path d="M3711 596 c-7 -8 -22 -17 -35 -20 -31 -8 -39 -39 -15 -60 27 -23 42
-20 62 13 29 49 19 105 -12 67z"/>
<path d="M3577 593 c-4 -3 -2 -12 4 -20 6 -7 9 -24 7 -38 -3 -14 -1 -28 3 -31
5 -3 9 -15 9 -26 0 -30 10 -16 20 25 11 51 -19 115 -43 90z"/>
<path d="M4475 566 c-4 -19 -4 -44 0 -55 12 -39 25 -21 25 34 0 61 -16 74 -25
21z"/>
<path d="M3 545 c0 -22 2 -30 4 -17 2 12 2 30 0 40 -3 9 -5 -1 -4 -23z"/>
<path d="M4150 571 c0 -5 5 -13 10 -16 6 -3 10 -2 10 4 0 5 -4 13 -10 16 -5 3
-10 2 -10 -4z"/>
<path d="M640 560 c0 -5 7 -10 16 -10 8 0 12 5 9 10 -3 6 -10 10 -16 10 -5 0
-9 -4 -9 -10z"/>
<path d="M608 543 c7 -3 16 -2 19 1 4 3 -2 6 -13 5 -11 0 -14 -3 -6 -6z"/>
<path d="M178 513 c-31 -33 -35 -43 -14 -43 21 0 30 -19 16 -35 -20 -24 -8
-60 20 -62 14 -1 18 0 8 3 -25 7 -22 39 4 63 18 17 20 24 10 43 -6 13 -12 31
-14 41 -3 16 -7 15 -30 -10z"/>
<path d="M31 508 c-8 -13 -9 -23 -3 -27 5 -3 13 -21 17 -38 7 -35 19 -43 29
-18 3 8 -2 19 -12 24 -9 6 -12 11 -6 11 11 0 7 57 -5 64 -4 3 -13 -5 -20 -16z"/>
<path d="M648 507 c-32 -13 -35 -27 -10 -50 28 -26 57 -12 59 29 3 37 -3 39
-49 21z"/>
<path d="M480 481 c-19 -11 -43 -22 -52 -25 -10 -3 -18 -10 -18 -16 0 -6 8 -9
18 -6 20 6 50 -9 39 -20 -4 -4 -17 -8 -30 -10 -12 -1 -25 -3 -28 -3 -4 -1 -9
-10 -12 -21 -3 -11 -15 -24 -27 -28 -20 -8 -20 -10 20 -60 34 -42 39 -53 26
-58 -24 -9 -45 3 -56 32 -6 15 -14 24 -18 20 -9 -10 -9 -66 1 -66 4 0 7 5 7
10 0 23 21 7 27 -20 6 -30 17 -38 28 -20 3 5 28 -6 55 -25 60 -42 70 -43 70
-6 0 40 -21 76 -45 76 -16 0 -19 6 -17 28 2 18 -2 27 -12 27 -9 0 -12 7 -9 19
4 16 11 18 41 14 40 -7 52 -17 52 -49 0 -11 7 -29 15 -40 14 -19 15 -19 21 4
8 29 24 28 24 -1 0 -13 6 -32 14 -43 14 -18 15 -18 22 0 4 10 2 27 -4 37 -7
10 -12 31 -12 46 -1 33 -24 68 -39 58 -6 -3 -11 2 -11 13 0 10 -3 22 -7 25 -3
4 -7 18 -8 31 -1 23 0 23 27 -6 16 -17 28 -34 28 -39 0 -5 5 -9 10 -9 14 0 13
51 -2 81 -27 57 -86 78 -138 50z m43 -62 c5 -19 14 -37 20 -41 9 -6 9 -12 1
-25 -14 -23 -28 -20 -32 7 -2 11 -7 20 -12 20 -9 0 -20 61 -13 73 10 16 27 0
36 -34z m-111 -111 c-15 -15 -26 -4 -18 18 5 13 9 15 18 6 9 -9 9 -15 0 -24z"/>
<path d="M365 470 c-3 -5 -1 -10 4 -10 6 0 11 5 11 10 0 6 -2 10 -4 10 -3 0
-8 -4 -11 -10z"/>
<path d="M4491 444 c0 -11 3 -14 6 -6 3 7 2 16 -1 19 -3 4 -6 -2 -5 -13z"/>
<path d="M4082 395 c0 -16 2 -22 5 -12 2 9 2 23 0 30 -3 6 -5 -1 -5 -18z"/>
<path d="M3595 387 c-10 -23 -65 -38 -65 -18 0 6 -4 11 -9 11 -12 0 -2 -42 13
-55 6 -6 16 -19 22 -30 6 -11 19 -21 28 -23 14 -3 16 3 15 36 -2 22 2 46 8 54
6 7 8 21 4 30 -6 16 -7 15 -16 -5z"/>
<path d="M114 363 c2 -21 3 -48 4 -60 2 -27 19 -30 26 -5 17 60 17 82 2 82 -9
0 -16 5 -16 10 0 6 -4 10 -9 10 -5 0 -8 -17 -7 -37z"/>
<path d="M655 364 c8 -16 15 -38 15 -49 1 -12 7 -3 15 20 8 21 13 40 12 41 -1
1 -14 5 -29 9 -28 7 -28 7 -13 -21z"/>
<path d="M36 342 c-3 -3 -6 -18 -6 -34 0 -29 30 -53 38 -30 2 7 8 10 13 6 5
-3 9 -1 9 4 0 5 -9 12 -20 15 -11 3 -20 10 -20 16 0 6 7 8 15 5 8 -4 15 -2 15
4 0 11 -36 23 -44 14z"/>
<path d="M307 333 c-13 -13 -7 -21 13 -16 11 3 17 9 14 14 -6 11 -18 12 -27 2z"/>
<path d="M4035 329 c-10 -15 -54 -31 -95 -35 -19 -1 -60 -7 -90 -11 -30 -5
-69 -6 -87 -2 -23 4 -33 2 -37 -8 -9 -22 -8 -23 24 -23 17 0 33 -7 39 -17 9
-17 10 -17 17 0 5 14 13 17 32 12 29 -7 82 -54 82 -73 0 -8 9 -12 22 -10 16 2
24 12 28 33 9 42 33 86 65 118 15 15 23 27 17 27 -6 0 -14 -5 -17 -11z"/>
<path d="M190 315 c0 -8 5 -15 10 -15 6 0 10 7 10 15 0 8 -4 15 -10 15 -5 0
-10 -7 -10 -15z"/>
<path d="M245 280 c-3 -5 1 -10 10 -10 9 0 13 5 10 10 -3 6 -8 10 -10 10 -2 0
-7 -4 -10 -10z"/>
<path d="M3668 283 c-11 -3 -18 -14 -18 -29 0 -23 2 -24 15 -11 8 9 20 17 27
20 19 7 -3 24 -24 20z"/>
<path d="M4200 245 c-9 -43 21 -130 43 -122 7 2 13 21 14 41 2 39 -13 66 -34
59 -6 -2 -13 4 -16 14 -3 10 -6 14 -7 8z"/>
<path d="M134 186 c-9 -23 7 -68 25 -74 11 -4 13 3 8 33 -8 47 -23 66 -33 41z"/>
<path d="M780 190 c0 -5 5 -10 10 -10 6 0 10 5 10 10 0 6 -4 10 -10 10 -5 0
-10 -4 -10 -10z"/>
<path d="M3700 166 c0 -15 6 -22 20 -22 12 0 20 7 20 17 0 9 -9 19 -20 22 -16
4 -20 0 -20 -17z"/>
<path d="M1 154 c0 -11 3 -14 6 -6 3 7 2 16 -1 19 -3 4 -6 -2 -5 -13z"/>
<path d="M380 150 c0 -5 4 -10 9 -10 6 0 13 5 16 10 3 6 -1 10 -9 10 -9 0 -16
-4 -16 -10z"/>
<path d="M45 130 c-4 -12 -1 -27 5 -35 6 -8 9 -19 5 -25 -11 -18 -24 -11 -27
15 -4 32 -22 37 -26 8 -4 -25 25 -63 48 -63 8 1 27 17 42 37 28 36 28 59 2 49
-9 -3 -14 2 -14 14 0 26 -27 26 -35 0z"/>
<path d="M3642 123 c8 -22 18 -30 35 -30 24 0 27 5 16 33 -6 17 -7 16 -13 -1
-6 -17 -8 -16 -28 5 l-21 23 11 -30z"/>
<path d="M251 129 c-1 -9 -10 -24 -21 -34 -19 -17 -20 -17 -20 0 0 14 -3 16
-11 8 -7 -7 -8 -24 -4 -42 6 -30 8 -31 61 -31 48 0 54 2 54 21 0 12 -8 23 -20
26 -12 3 -24 19 -29 37 -5 17 -10 24 -10 15z"/>
<path d="M650 121 c0 -10 -7 -22 -16 -25 -9 -3 -14 -12 -11 -19 2 -6 -3 -20
-11 -30 -14 -16 -12 -17 31 -16 52 2 52 1 35 64 -12 46 -28 60 -28 26z"/>
<path d="M3610 99 c0 -6 -9 -24 -21 -40 l-20 -29 40 0 c28 0 39 4 37 12 -3 7
-7 25 -10 41 -6 26 -26 39 -26 16z"/>
<path d="M503 87 c0 -7 -2 -16 -3 -22 -5 -19 0 -35 10 -35 12 0 14 57 2 64 -5
3 -9 0 -9 -7z"/>
<path d="M455 70 c-3 -5 -1 -10 4 -10 6 0 11 5 11 10 0 6 -2 10 -4 10 -3 0 -8
-4 -11 -10z"/>
<path d="M3910 45 c-11 -13 -8 -15 16 -15 16 0 25 4 19 8 -5 4 -13 11 -16 15
-3 4 -12 1 -19 -8z"/>
<path d="M4454 49 c-9 -15 1 -21 26 -17 21 3 21 3 1 15 -14 9 -22 9 -27 2z"/>
<path d="M85 40 c-3 -5 1 -10 10 -10 9 0 13 5 10 10 -3 6 -8 10 -10 10 -2 0
-7 -4 -10 -10z"/>
<path d="M370 40 c0 -5 5 -10 11 -10 5 0 7 5 4 10 -3 6 -8 10 -11 10 -2 0 -4
-4 -4 -10z"/>
</g>
</svg>
